<?xml version="1.0" encoding="utf-8"?>
<!-- Generator: Adobe Illustrator 23.0.2, SVG Export Plug-In . SVG Version: 6.00 Build 0)  -->
<svg version="1.1" id="Logo_Art" xmlns="http://www.w3.org/2000/svg" xmlns:xlink="http://www.w3.org/1999/xlink" x="0px" y="0px"
	 viewBox="0 0 1125 110" style="enable-background:new 0 0 1125 110;" xml:space="preserve">
<style type="text/css">
	.st0{fill:#2D2D2D;}
</style>
<g id="Logo_Body">
	<path class="st0" d="M604.91,40.97c-7.62,18.93-15.21,37.88-22.9,56.78c-0.89,2.2-0.91,5.77-3.7,5.95
		c-2.99,0.19-3.13-3.47-4.1-5.58c-8.49-18.4-17.58-36.53-25.28-55.28c-0.24-0.57-0.68-1.06-1.12-1.73
		c-2.18,0.95-1.76,2.76-1.76,4.26c-0.04,14.16,0.02,28.31-0.08,42.47c-0.03,3.84,1.76,6.32,5.03,7.87c1.49,0.71,3.15,1.04,4.69,1.67
		c1.6,0.66,4.24,0.77,3.78,3.12c-0.35,1.78-2.68,1.52-4.33,1.52c-8.83,0-17.66,0.01-26.49-0.02c-1.28,0-3.04,0.35-3.49-1.2
		c-0.64-2.21,1.65-2.15,2.83-2.64c5.73-2.33,8.42-6.65,8.97-12.66c1.56-17.07,3.25-34.13,4.8-51.21
		c0.96-10.54,0.08-11.77-9.91-15.23c-1.67-0.58-4.11-0.8-3.75-3.18c0.36-2.4,2.78-1.86,4.52-1.87c7.83-0.05,15.66,0.1,23.49-0.08
		c3.35-0.07,4.91,1.17,6.2,4.33c7.18,17.66,14.66,35.21,22.02,52.75c0.69-0.18,1.18-0.17,1.24-0.34
		c6.64-17.32,16.22-33.54,19.63-52.07c0.66-3.58,2.38-4.85,6.13-4.72c8.48,0.3,16.99,0.08,25.48,0.11c1.28,0,3.03-0.39,3.38,1.29
		c0.36,1.72-1.48,1.96-2.61,2.49c-10.18,4.82-10.92,6.21-10.23,17.19c1.01,16.12,2.07,32.24,2.67,48.38
		c0.27,7.16,2.41,12.26,9.9,14.05c1.33,0.32,3.27,0.71,3.05,2.7c-0.27,2.43-2.4,1.86-3.95,1.86c-12.99,0.04-25.99,0.03-38.98,0.01
		c-1.63,0-3.71,0.23-3.93-2.01c-0.21-2.1,1.76-2.5,3.35-3.04c8.41-2.85,8.65-3.29,8.27-12.08c-0.63-14.59-1.17-29.18-1.75-43.78
		C605.63,41.06,605.27,41.01,604.91,40.97z"/>
	<path class="st0" d="M289.2,57.7c0,9.17-0.01,18.33,0,27.5c0.01,8.12,0.95,9.39,8.67,11.57c1.86,0.52,4.42,0.35,4.22,3.18
		c-0.23,3.21-2.98,2.01-4.7,2.02c-12.5,0.1-25,0.06-37.5,0.04c-1.78,0-4.19,0.47-4.63-1.8c-0.5-2.65,1.92-3.06,3.93-3.44
		c5.54-1.06,7.5-4.53,7.45-10.01c-0.16-18.67-0.05-37.33-0.06-56c-0.01-8.52-0.11-8.62-8.16-11.89c-1.24-0.5-2.61-0.96-2.58-2.63
		c0.03-1.71,1.25-2.3,2.72-2.21c16.3,1.06,32.61-2.41,48.9-0.11c17.43,2.47,27.47,14.43,25.3,29.78
		c-3.12,22-20.71,28.09-35.08,27.14c-1.13-0.07-2.26-0.56-3.31-1.04c-1.14-0.51-1.88-1.44-1.52-2.8c0.38-1.41,1.61-1.53,2.79-1.59
		c10.99-0.58,12.77-2.25,14.54-13.46c1.21-7.68,0.97-15.26-1.12-22.76c-0.78-2.78-2.08-5.29-4.35-7.14
		c-3.5-2.85-7.47-3.75-11.67-1.94c-3.78,1.62-3.66,5.23-3.68,8.57c-0.05,9.67-0.02,19.33-0.02,29
		C289.29,57.7,289.24,57.7,289.2,57.7z"/>
	<path class="st0" d="M124.64,52.35c3.89-2.67,6.74-4.93,9.86-6.71c12.95-7.36,26.97,0.36,27.45,15.22
		c0.31,9.65,0.2,19.32,0.03,28.97c-0.06,3.59,0.72,6.14,4.48,7.24c1.36,0.4,3.09,1.05,2.77,2.98c-0.38,2.29-2.39,1.94-3.99,1.94
		c-8.66,0.03-17.32,0.02-25.98,0.01c-1.51,0-3.25,0.06-3.71-1.74c-0.49-1.9,1.13-2.67,2.55-3.11c3.16-0.99,4.57-3.09,4.57-6.31
		c-0.02-8.49,0.22-16.99-0.09-25.48c-0.32-8.69-5.93-12.34-13.33-9.2c-3.08,1.31-4.6,3.23-4.51,6.84
		c0.23,9.15,0.17,18.32,0.03,27.48c-0.05,3.22,0.86,5.45,4.06,6.55c1.43,0.49,2.97,1.31,2.69,3.12c-0.36,2.32-2.39,1.86-3.99,1.87
		c-8.83,0.02-17.65,0.02-26.48,0.01c-1.48,0-3.28,0.17-3.64-1.73c-0.36-1.9,1.43-2.7,2.77-2.98c4.4-0.93,5.12-3.78,5.09-7.74
		c-0.13-20.15-0.03-40.3-0.08-60.45c-0.01-4.3,0.3-8.66-5.13-10.73c-2.15-0.82-1.86-3.27,0.62-3.91c7.41-1.93,14.51-4.73,21.77-7.11
		c3.62-1.18,2.71,1.93,2.6,3.61c-0.77,11.65-0.19,23.31-0.37,34.96C124.62,47.75,124.64,49.57,124.64,52.35z"/>
	<path class="st0" d="M39.99,57.51c0-10.16-0.11-20.32,0.05-30.48c0.07-4.66-2.01-6.61-6.51-6.83c-7.55-0.37-13.62,2.3-18.38,8.15
		c-1.67,2.06-3.48,4.01-5.32,5.91c-0.87,0.91-2.18,1.13-3.25,0.53c-1.15-0.64-1.19-2-0.88-3.12c0.48-1.75,1.09-3.48,1.83-5.13
		c2.2-4.87,4.12-9.81,4.43-15.23c0.1-1.78,0.65-3.36,2.38-4.06c1.86-0.75,2.79,0.83,3.54,2.02c2.37,3.74,6.18,4.54,10,4.57
		c18.32,0.15,36.64,0.1,54.96,0.07c4.25-0.01,7.58-2.09,10.52-5.01c0.99-0.99,2.11-2.5,3.8-1.43c1.34,0.85,1.05,2.49,0.7,3.68
		c-2.04,6.89-3.31,13.89-3.44,21.09c-0.02,1.09-0.19,2.45-1.68,2.73c-1.6,0.3-2.43-0.75-3.09-1.98c-0.23-0.44-0.5-0.87-0.64-1.35
		c-3.31-11.04-8.78-11.65-19.22-11.45c-3.29,0.06-5.18,1.62-5.96,4.88c-0.63,2.63-0.79,5.26-0.79,7.92
		c-0.01,17.82,0.17,35.64-0.13,53.46c-0.09,5.63,2.06,8.79,7.24,10.27c0.8,0.23,1.61,0.44,2.37,0.77c1.2,0.51,2.74,0.86,2.58,2.58
		c-0.2,2.14-1.98,1.91-3.44,1.92c-10.99,0.03-21.98,0.02-32.98,0.01c-2.66,0-5.33,0.03-7.99-0.06c-1.4-0.05-2.69-0.52-2.79-2.22
		c-0.08-1.42,1.02-2.32,2.11-2.41c10.29-0.92,10.56-7.92,10.19-15.84c-0.37-7.98-0.08-15.98-0.08-23.98
		C40.08,57.51,40.04,57.51,39.99,57.51z"/>
	<path class="st0" d="M838.75,52.31c5.43-4.38,9.98-7.91,15.96-8.98c10.67-1.91,19.64,4.3,20.36,15.14
		c0.68,10.28,0.47,20.63,0.42,30.94c-0.02,3.87,0.53,6.89,4.99,7.84c1.41,0.3,2.98,1.24,2.46,3.16c-0.42,1.56-1.92,1.6-3.28,1.6
		c-8.99,0-17.98,0-26.97,0c-1.51,0-3.18,0.07-3.55-1.87c-0.31-1.64,1.05-2.59,2.27-2.84c4.63-0.98,4.75-4.27,4.69-8
		c-0.14-7.99,0.06-15.98-0.12-23.97c-0.21-9.53-6.64-13-14.86-8.28c-2.13,1.22-3.03,2.74-3,5.2c0.1,9.65,0.1,19.31,0.01,28.97
		c-0.03,2.91,1.12,4.71,3.82,5.68c1.53,0.55,3.45,1.04,3.12,3.23c-0.35,2.37-2.41,1.86-3.98,1.87c-8.66,0.04-17.31,0.03-25.97,0.01
		c-1.63,0-3.7,0.28-4.06-1.87c-0.37-2.17,1.74-2.67,3.24-3.11c3.69-1.1,4.71-3.54,4.64-7.18c-0.17-9.49-0.04-18.98-0.07-28.47
		c-0.01-3.22-0.2-6.4-3.85-7.91c-1.2-0.49-1.76-1.56-1.65-2.82c0.14-1.56,1.31-2.21,2.68-2.56c6.92-1.76,13.81-3.57,20.22-6.86
		c2.14-1.1,3.05-0.07,2.91,2.21C839,46.07,838.92,48.69,838.75,52.31z"/>
	<path class="st0" d="M912.76,52.24c5.24-4.06,9.56-7.62,15.33-8.77c11.18-2.23,20.29,3.99,21.03,15.36
		c0.65,9.95,0.45,19.96,0.37,29.95c-0.03,4.19,0.37,7.61,5.32,8.63c1.25,0.26,2.55,1.2,2.16,2.88c-0.38,1.63-1.8,1.73-3.17,1.73
		c-9.16,0-18.31,0-27.47,0c-1.39,0-2.79-0.14-3.17-1.74c-0.4-1.66,0.91-2.66,2.13-2.92c4.88-1.05,4.89-4.55,4.81-8.42
		c-0.15-7.99-0.05-15.98-0.11-23.97c-0.03-3.85-0.96-7.4-4.76-9.18c-4.11-1.93-7.74-0.1-11.24,2.01c-1.47,0.89-1.84,2.22-1.83,3.82
		c0.02,9.99,0.06,19.98-0.02,29.97c-0.02,3.02,1.53,4.51,4.16,5.43c1.57,0.55,3.34,1.3,2.74,3.47c-0.53,1.9-2.35,1.52-3.8,1.52
		c-8.82,0.02-17.65,0.01-26.47,0c-1.5,0-3.25,0.07-3.71-1.74c-0.5-1.97,1.32-2.71,2.64-3.03c4.5-1.11,5.36-4.1,5.26-8.25
		c-0.22-8.98-0.06-17.98-0.07-26.97c0-3.56-0.24-6.77-4.11-8.84c-2.46-1.31-2.12-3.98,0.69-4.81c7.16-2.1,14.41-3.86,21.15-7.24
		c2-1,2.65,0.3,2.56,2.17C913.03,45.96,912.92,48.6,912.76,52.24z"/>
	<path class="st0" d="M365.14,43c-17.79-0.07-32.23,14.48-32.22,32.48c0.01,16.51,12.44,28.55,29.45,28.52
		c19.51-0.03,32.64-12.85,32.7-31.92C395.13,56.07,381.74,43.07,365.14,43z M373.06,90.53c-1.06,3.88-3.3,6.62-7.41,7.12
		c-4.16,0.51-6.37-2.38-8.07-5.55c-3.65-6.78-4.56-14.17-4.51-22.97c-0.17-3.12,0.33-7.44,1.24-11.67c0.89-4.14,3.01-7.57,7.68-8.09
		c4.48-0.5,7.05,2.37,8.91,5.95c3.15,6.07,3.82,12.69,3.91,19.38C374.88,80.04,374.48,85.34,373.06,90.53z"/>
	<path class="st0" d="M683.03,98.91c9.84-4.31,9.01-1.66,9.02-12.35c0.02-18.99,0.03-37.98-0.01-56.97
		c-0.01-4.44,0.52-9.02-5.15-11.22c-2.11-0.82-1.74-3.34,0.74-3.91c7.32-1.69,14.23-4.57,21.29-6.98c3.89-1.33,3.25,1.6,3.16,3.59
		c-0.98,22.98-0.17,45.96-0.43,68.94c-0.04,3.66,0.09,7.33-0.03,10.99c-0.11,3.22,0.81,5.44,4.29,6.26
		c1.49,0.35,3.72,0.88,3.43,2.99c-0.37,2.64-2.83,1.73-4.49,1.75c-8.66,0.08-17.32,0.09-25.98,0c-1.94-0.02-3.88-0.53-5.81-0.82
		C682.42,100.42,682.42,99.67,683.03,98.91z"/>
	<path class="st0" d="M748.65,51.51c0,12.83,0.07,25.66-0.05,38.48c-0.03,3.69,0.49,6.57,4.77,7.45c1.38,0.28,3.23,0.92,2.99,2.8
		c-0.3,2.41-2.48,1.75-4.01,1.76c-9,0.05-17.99,0.04-26.99,0.01c-1.6-0.01-3.73,0.44-4.12-1.74c-0.38-2.13,1.73-2.79,3.23-3.14
		c3.92-0.92,4.66-3.43,4.64-7.03c-0.11-20.32-0.04-40.65-0.07-60.98c-0.01-4.33,0.27-8.65-5.13-10.74c-2.1-0.81-1.81-3.33,0.69-3.91
		c7.32-1.71,14.23-4.56,21.3-6.99c3.88-1.33,3.32,1.55,3.18,3.56c-0.79,11.32-0.27,22.65-0.42,33.97
		C748.62,47.18,748.65,49.34,748.65,51.51z"/>
	<path class="st0" d="M1082.65,48.58c0,15.48,0.07,28.64-0.05,41.8c-0.03,3.58,0.71,6.15,4.67,7.01c1.53,0.34,3.6,1.06,3.06,3.22
		c-0.45,1.82-2.41,1.39-3.87,1.39c-9,0.02-17.99,0.02-26.99,0c-1.6,0-3.73,0.45-4.22-1.63c-0.5-2.14,1.62-2.85,3.11-3.2
		c3.85-0.91,4.77-3.29,4.75-6.96c-0.12-20.49-0.04-40.98-0.07-61.48c-0.01-4.19,0.11-8.3-5.04-10.29c-2.11-0.81-2.04-3.31,0.5-3.93
		c7.46-1.81,14.49-4.85,21.78-7.11c4.01-1.24,2.86,2.29,2.75,4.01C1082.2,24.58,1082.93,37.75,1082.65,48.58z"/>
	<path class="st0" d="M1055.28,93.58c-0.71-0.8-1.38-0.33-2.19-0.04c-5.66,2.05-7.75,0.65-7.94-5.49
		c-0.15-4.66,1.85-20.05,0.73-27.96c-0.25-8.05-4.14-13.93-10.43-16.07c-9.42-3.22-31.52,6.59-35.38,15.76
		c-0.43,1.03-0.58,2.27-0.54,3.4c0.03,0.98,0.58,1.82,1.67,2.26c4.42,1.78,12.99-3.7,12.94-8.5c-0.05-4.27,2.69-5.43,6.03-5.83
		c3.73-0.45,5.62,1.68,5.85,5.21c0.2,2.98-0.14,6.01,0.13,8.98c0.37,3.96-1.42,6.08-4.92,7.58c-5.94,2.54-12.11,4.67-17.4,8.55
		c-4.19,3.07-5.75,7.26-4.84,12.27c0.85,4.67,3.96,7.64,8.24,9.26c6.86,2.6,12.81,0.38,17.92-4.24c2.36-2.13,3.47-2.12,5.68,0.36
		c6.67,7.5,18.99,6.15,24.01-2.34C1055.39,95.79,1056.36,94.78,1055.28,93.58z M1025.85,81.89c0.09,0.99,0.02,1.99,0.02,2.99
		c-0.18,2.15-0.25,4.31-0.6,6.44c-0.36,2.2-1.7,3.57-4.05,3.64c-2.11,0.06-3.37-1.16-4.13-2.99c-1.8-4.29-0.05-10.22,3.83-12.77
		c1.19-0.78,2.43-2.16,4-1.38C1026.63,78.67,1025.73,80.48,1025.85,81.89z"/>
	<path class="st0" d="M220.44,84.07c-0.63-0.23-1.62,0.11-2.3,0.48c-2.48,1.34-4.77,3.1-7.36,4.17
		c-11.24,4.62-23.04-3.06-23.49-15.15c-0.13-3.49,0.87-5.81,5.07-5.58c3.99,0.22,7.99,0.05,11.99,0.05c3.66,0,7.33,0.02,10.99-0.01
		c5.48-0.04,7.06-1.87,6.4-7.36c-1.39-11.51-12.73-19.41-24.9-17.36c-19.21,3.24-30.59,22.6-24.34,41.65
		c3.24,9.86,9.54,16.9,20.13,18.65c9.89,1.63,18.41-1.54,24.96-9.32c1.84-2.19,3.11-4.72,3.53-7.59
		C221.25,85.73,221.6,84.5,220.44,84.07z M193.47,51.07c3.35-2.59,7.02-2.99,10.6-0.55c2.96,2.02,3.44,5.12,2.83,8.43
		c-0.43,2.36-2.48,2.49-4.25,2.66c-1.97,0.2-3.97,0.04-6.58,0.04c-1.91-0.47-5.67,1.87-6.83-1.73
		C188.06,56.22,190.59,53.28,193.47,51.07z"/>
	<path class="st0" d="M806.44,84.07c-0.63-0.24-1.62,0.11-2.3,0.47c-2.48,1.34-4.77,3.11-7.36,4.17
		c-11.24,4.62-23.04-3.06-23.49-15.15c-0.13-3.48,0.87-5.81,5.06-5.59c3.99,0.22,7.99,0.05,11.99,0.05c3.66,0,7.33,0.02,10.99-0.01
		c5.49-0.04,7.06-1.87,6.4-7.36c-1.38-11.51-12.72-19.42-24.9-17.36c-19.21,3.24-30.6,22.6-24.35,41.64
		c3.24,9.86,9.53,16.9,20.12,18.65c9.89,1.63,18.41-1.54,24.96-9.32c1.84-2.19,3.11-4.72,3.53-7.59
		C807.25,85.73,807.6,84.5,806.44,84.07z M778.54,51.82c4.83-4.5,12.05-3.45,14.12,2.01c1.76,4.64,0.08,7.46-4.79,7.88
		c-1.65,0.14-3.31,0.02-4.97,0.02c0,0.03,0,0.05,0,0.08c-0.33,0-0.67,0.05-0.99-0.01c-2.28-0.44-5.56,1.38-6.65-1.67
		C774.08,56.85,776.14,54.06,778.54,51.82z"/>
	<path class="st0" d="M454.92,72.66c0-5-0.11-10,0.04-14.99c0.1-3.02-0.66-4.96-4.09-4.62c-2.42,0.23-3.59-0.79-4.18-3.17
		c-0.67-2.7,1.28-3.02,2.86-3.79c6.8-3.33,12.47-8.24,18.23-13.03c1.51-1.26,3.13-3.14,5.23-2.06c2.21,1.14,1.03,3.58,0.89,5.39
		c-0.67,8.63-0.74,8.62,7.84,8.62c2.83,0,5.67,0.12,8.49-0.04c2.55-0.15,3.93,0.84,3.58,3.39c-0.3,2.15-0.05,4.88-3.67,4.71
		c-3.49-0.17-7,0.05-10.49-0.05c-3.74-0.11-5.5,1.4-5.42,5.32c0.15,7.83-0.07,15.66,0.07,23.49c0.22,11.42,5.33,14.87,16.17,11.11
		c1.18-0.41,2.45-1.58,3.33,0.34c0.65,1.43-0.03,2.47-1.05,3.52c-6.38,6.53-21.3,9.21-29.5,5.18c-5.7-2.81-8.03-7.78-8.24-13.81
		c-0.19-5.16-0.04-10.33-0.04-15.49C454.94,72.66,454.93,72.66,454.92,72.66z"/>
	<path class="st0" d="M399.93,87.69c0-1,0.02-2,0-3c-0.03-1.39,0.06-2.68,1.71-3.16c1.7-0.5,2.99,0.2,3.88,1.52
		c0.93,1.37,1.62,2.9,2.43,4.34c1.71,3.05,3.46,6.12,6.28,8.31c3.8,2.95,8.74,2.66,11.25-0.51c2.65-3.34,1.92-7.88-2.2-10.84
		c-3.36-2.42-7.15-4.23-10.64-6.48c-4.24-2.73-8.11-5.87-9.68-10.99c-3.18-10.37,2.42-19.86,13.55-22.82
		c4.9-1.3,9.82-1.37,14.83-0.31c7.6,1.6,8.3,2.02,8.79,9.53c0.17,2.53,2.42,6.26-1.16,7.49c-3.96,1.36-4.52-2.87-5.78-5.4
		c-1.21-2.43-2.63-4.65-4.96-6.12c-3.43-2.17-7.96-1.4-10.35,1.66c-2.44,3.14-1.94,6.58,2,9.42c4.17,3,8.73,5.46,13.05,8.26
		c4.81,3.12,8.12,7.3,8.95,13.18c1.56,11.05-4.28,19.23-15.27,21.43c-4.46,0.89-8.91,1.12-13.39,0.33
		C402.02,101.54,400.04,99.18,399.93,87.69z"/>
	<path class="st0" d="M978.25,102.02c-5,0-10,0-14.99,0c-1.34,0-2.84,0.09-3.25-1.59c-0.48-1.98,1.06-2.83,2.51-3.06
		c5.37-0.86,6.29-4.3,6.14-9.04c-0.28-8.49-0.06-16.99-0.22-25.48c-0.06-3.6-0.62-7.1-5.2-7.9c-1.52-0.27-2.26-1.38-2.1-2.91
		c0.14-1.32,1.02-1.95,2.32-2.21c7.88-1.61,15.13-4.97,22.46-8.11c3.27-1.4,3.91,0.02,3.5,2.88c-2.13,14.92-1.12,29.93-1.51,44.9
		c-0.11,4.21,1.27,6.57,5.28,7.69c1.64,0.46,4.07,0.96,3.4,3.44c-0.56,2.07-2.77,1.36-4.34,1.38
		C987.58,102.06,982.92,102.02,978.25,102.02z"/>
	<path class="st0" d="M683.03,98.91c0.01,0.75,0.02,1.51,0.02,2.26c-3.25,1.78-6.76,0.72-10.13,0.8
		c-7.48,0.18-14.97,0.07-22.45,0.04c-1.46,0-3.2,0.22-3.5-1.86c-0.29-2.03,1.43-2.66,2.79-2.88c5.2-0.82,6.01-4.18,5.88-8.69
		c-0.24-8.47-0.04-16.96-0.19-25.44c-0.07-3.75-0.54-7.46-5.4-8.25c-1.29-0.21-1.98-1.27-1.96-2.54c0.02-1.56,1.01-2.26,2.51-2.57
		c7.69-1.59,14.81-4.82,21.94-7.94c3.2-1.4,4.35-0.59,3.85,2.87c-2.1,14.55-1.07,29.21-1.53,43.82c-0.16,5.01,1.38,7.9,6.24,9.04
		C681.86,97.72,682.78,97.92,683.03,98.91z"/>
	<path class="st0" d="M1118.64,95.25c-0.09,6.58-5.73,11.98-12.26,11.74c-6.26-0.23-11.49-5.9-11.27-12.22
		c0.23-6.47,5.58-11.81,11.78-11.77C1113.5,83.05,1118.73,88.5,1118.64,95.25z"/>
	<path class="st0" d="M676.08,24.61c0,6.35-4.95,11.32-11.37,11.39c-6.15,0.07-11.53-5.21-11.56-11.34
		c-0.03-6.31,5.03-11.57,11.23-11.65C670.92,12.91,676.07,18.01,676.08,24.61z"/>
	<path class="st0" d="M989.08,24.42c0.09,6.37-4.76,11.39-11.19,11.57c-6.15,0.17-11.6-5-11.74-11.15
		c-0.15-6.3,4.83-11.64,11.04-11.84C983.73,12.8,988.99,17.84,989.08,24.42z"/>
</g>
</svg>
